<?xml version="1.0" standalone="no"?>
<!DOCTYPE svg PUBLIC "-//W3C//DTD SVG 20010904//EN"
 "http://www.w3.org/TR/2001/REC-SVG-20010904/DTD/svg10.dtd">
<svg version="1.0" xmlns="http://www.w3.org/2000/svg"
 width="326.000000pt" height="326.000000pt" viewBox="0 0 326.000000 326.000000"
 preserveAspectRatio="xMidYMid meet">
<metadata>
Created by potrace 1.14, written by Peter Selinger 2001-2017
</metadata>
<g transform="translate(0.000000,326.000000) scale(0.100000,-0.100000)"
fill="#000000" stroke="none">
<path d="M1581 2872 c-14 -2 -36 -11 -50 -20 -14 -10 -28 -16 -31 -16 -3 1
-30 -13 -60 -30 -30 -17 -58 -30 -62 -28 -5 1 -8 -3 -8 -8 0 -5 -7 -10 -15
-10 -8 0 -15 -4 -15 -10 0 -5 -9 -10 -20 -10 -11 0 -20 -5 -20 -12 0 -6 -3 -9
-6 -5 -4 3 -24 -3 -44 -13 -21 -11 -52 -21 -69 -22 -17 -1 -31 -5 -31 -9 0 -3
-26 -11 -57 -18 -32 -7 -66 -17 -75 -22 -10 -5 -23 -9 -30 -9 -21 0 -168 -77
-161 -84 4 -3 -1 -6 -10 -6 -9 0 -40 -25 -69 -56 -29 -31 -61 -65 -70 -75 -9
-9 -14 -20 -10 -23 3 -3 1 -6 -5 -6 -6 0 -16 -13 -23 -30 -7 -16 -16 -30 -21
-30 -5 0 -9 -9 -9 -20 0 -11 -5 -20 -11 -20 -5 0 -8 -4 -4 -9 3 -5 1 -12 -5
-16 -5 -3 -10 -15 -10 -26 0 -10 -4 -19 -10 -19 -5 0 -10 -7 -10 -15 0 -14
-37 -94 -97 -208 -26 -48 -36 -75 -46 -117 0 -3 -9 -14 -19 -24 -10 -11 -19
-26 -19 -33 -2 -22 -8 -38 -45 -122 -13 -29 -24 -60 -24 -67 0 -8 -4 -14 -9
-14 -5 0 -12 -17 -15 -37 -16 -93 -18 -116 -8 -122 6 -3 12 -22 14 -41 4 -33
9 -47 28 -95 4 -11 16 -47 25 -80 9 -33 21 -69 26 -80 5 -11 11 -36 13 -55 8
-65 17 -104 26 -115 4 -5 11 -32 15 -60 4 -27 11 -52 16 -55 4 -3 9 -17 11
-30 2 -14 7 -30 11 -37 4 -6 8 -24 8 -40 1 -15 5 -41 10 -58 5 -16 9 -49 11
-72 1 -23 5 -40 10 -37 4 3 8 -12 8 -34 0 -24 6 -45 18 -54 19 -18 88 -39 96
-31 3 3 13 0 23 -8 15 -12 16 -12 8 1 -7 12 -6 13 6 4 22 -16 131 -19 502 -12
75 2 137 5 137 9 0 10 315 5 322 -6 5 -6 8 -5 8 3 0 7 3 11 8 9 8 -6 66 -16
137 -24 63 -7 489 -7 575 1 36 3 83 6 105 5 79 -1 91 0 130 5 22 3 69 8 105
12 36 3 68 11 72 17 4 6 10 8 14 4 10 -9 96 81 89 93 -3 4 -2 10 2 12 8 3 67
113 69 126 1 9 12 39 31 80 8 18 16 42 18 52 2 11 7 26 12 33 4 6 9 93 11 192
1 99 3 196 3 215 1 19 -1 53 -5 74 -6 42 -60 161 -82 184 -8 7 -12 18 -9 23 4
5 0 9 -7 9 -7 0 -23 22 -36 48 -28 58 -83 131 -99 131 -7 1 -13 5 -13 11 0 11
-69 111 -83 121 -5 3 -8 8 -8 10 2 12 -13 49 -19 49 -6 0 -17 26 -18 43 -1 1
-7 15 -16 31 -8 16 -13 33 -10 38 3 4 0 8 -5 8 -6 0 -11 7 -11 15 0 8 -13 35
-30 61 -16 26 -27 51 -23 57 3 6 1 7 -5 3 -7 -4 -12 -1 -12 6 0 24 -69 158
-81 158 -7 0 -9 3 -6 7 4 3 -4 13 -17 22 -130 87 -180 129 -229 194 -12 16
-47 55 -78 86 -43 44 -70 61 -120 78 -35 12 -71 24 -79 25 -8 2 -17 5 -20 8
-9 10 -137 50 -158 50 -11 0 -22 4 -24 9 -3 10 -90 19 -127 13z"/>
</g>
</svg>
