<?xml version="1.0" standalone="no"?>
<!DOCTYPE svg PUBLIC "-//W3C//DTD SVG 20010904//EN"
 "http://www.w3.org/TR/2001/REC-SVG-20010904/DTD/svg10.dtd">
<svg version="1.0" xmlns="http://www.w3.org/2000/svg"
 width="672.000000pt" height="672.000000pt" viewBox="0 0 672.000000 672.000000"
 preserveAspectRatio="xMidYMid meet">
<metadata>
Created by potrace 1.14, written by Peter Selinger 2001-2017
</metadata>
<g transform="translate(0.000000,672.000000) scale(0.100000,-0.100000)"
fill="#000000" stroke="none">
<path d="M359 5908 c-1 -7 -2 -31 -4 -53 -3 -56 -14 -216 -21 -305 -4 -41 -8
-100 -9 -130 -2 -30 -4 -55 -5 -55 0 0 -3 -31 -5 -70 -5 -86 -15 -229 -30
-435 -2 -36 -7 -105 -10 -155 -3 -49 -8 -110 -10 -135 -4 -41 -8 -107 -20
-280 -2 -36 -7 -99 -10 -140 -12 -171 -14 -199 -21 -290 -9 -139 -11 -165 -19
-275 -4 -55 -9 -120 -10 -145 -2 -25 -7 -92 -11 -150 -4 -58 -7 -129 -8 -157
-1 -29 -3 -53 -6 -53 -3 0 -6 -24 -6 -53 -1 -28 -4 -90 -8 -137 -3 -47 -8
-114 -10 -150 -3 -36 -7 -101 -10 -145 -14 -185 -16 -224 -21 -295 -3 -41 -8
-102 -10 -135 -3 -33 -7 -96 -10 -140 -3 -44 -7 -107 -10 -140 -2 -33 -7 -98
-10 -145 -4 -47 -8 -110 -11 -140 -2 -30 -6 -93 -9 -140 -7 -106 -12 -181 -20
-290 -4 -47 -9 -107 -10 -135 -2 -27 -6 -87 -10 -132 l-6 -83 1570 0 1569 0
12 38 c6 20 15 53 20 72 6 19 22 78 36 130 14 52 27 102 29 110 2 8 26 98 55
200 51 184 56 204 64 238 2 9 58 216 125 459 66 243 123 453 125 465 3 13 33
122 67 243 33 121 62 227 65 235 2 8 8 35 15 60 6 25 13 52 16 60 3 8 8 24 10
34 2 11 17 67 34 125 17 58 32 113 34 121 2 8 8 35 15 60 7 25 14 52 15 60 2
8 31 114 65 235 34 121 63 228 66 238 2 9 7 27 10 40 3 12 7 29 9 37 2 8 4 15
5 15 1 0 3 7 5 15 10 39 78 291 115 425 50 183 91 335 95 355 2 8 6 23 10 33
4 9 3 17 -1 17 -5 0 -114 3 -243 5 -725 15 -700 14 -725 32 -12 9 -37 35 -54
58 -17 22 -55 65 -84 96 -29 31 -80 87 -113 125 -86 97 -135 152 -172 190 -18
19 -31 34 -29 34 2 0 -13 17 -33 38 -20 21 -70 76 -111 123 -41 46 -115 128
-163 181 l-88 98 -1040 0 c-824 0 -1039 -3 -1040 -12z"/>
<path d="M6297 5093 c-1 0 -36 -4 -78 -7 -42 -4 -85 -8 -95 -10 -11 -2 -55 -7
-99 -10 -44 -4 -93 -9 -110 -11 -16 -3 -55 -7 -85 -10 -30 -2 -73 -7 -95 -9
-38 -4 -106 -11 -205 -21 -25 -3 -65 -7 -90 -10 -25 -3 -74 -7 -110 -10 -36
-4 -76 -8 -90 -10 -14 -2 -54 -6 -90 -10 -153 -14 -192 -18 -300 -31 -24 -3
-47 -7 -49 -10 -4 -4 -145 -515 -156 -565 -5 -24 -27 -102 -33 -119 -3 -8 -6
-22 -8 -30 -2 -8 -22 -83 -45 -165 -22 -83 -42 -157 -44 -165 -2 -8 -16 -58
-30 -110 -15 -52 -36 -129 -47 -170 -31 -118 -45 -170 -63 -235 -9 -33 -18
-67 -20 -75 -2 -8 -11 -40 -20 -70 -9 -30 -18 -66 -21 -80 -2 -14 -7 -32 -10
-40 -5 -14 -31 -105 -39 -140 -8 -34 -116 -429 -130 -475 -15 -53 -41 -146
-55 -205 -5 -19 -39 -143 -75 -275 -37 -132 -69 -251 -71 -264 -3 -14 -7 -28
-10 -33 -3 -4 -7 -16 -9 -25 -1 -10 -10 -45 -19 -78 -9 -33 -19 -67 -21 -75
-2 -8 -15 -58 -30 -110 -14 -52 -28 -106 -31 -120 -2 -14 -9 -36 -14 -50 -11
-30 -58 -208 -63 -235 -1 -11 -5 -24 -8 -30 -5 -8 -22 -70 -35 -127 -1 -5 -2
-9 -4 -10 -1 -2 -3 -11 -5 -20 -3 -17 74 -18 1506 -18 l1510 0 -6 67 c-4 38
-9 95 -11 128 -9 130 -13 182 -19 240 -3 33 -7 89 -10 125 -2 36 -6 94 -9 130
-3 36 -8 97 -11 135 -3 39 -7 93 -10 120 -3 28 -7 86 -10 130 -4 44 -8 100
-10 125 -3 25 -7 79 -10 120 -5 75 -12 162 -20 255 -10 109 -16 183 -20 250
-3 39 -7 93 -10 120 -2 28 -7 91 -11 140 -3 50 -7 108 -9 130 -8 88 -15 173
-19 225 -2 30 -7 96 -11 145 -4 50 -9 110 -11 135 -1 25 -5 72 -8 105 -4 33
-8 92 -11 130 -10 129 -15 200 -20 255 -3 30 -7 84 -10 120 -2 36 -7 94 -10
130 -8 100 -16 189 -20 250 -2 30 -6 82 -9 115 -3 33 -8 92 -11 130 -7 101
-15 214 -20 255 -2 19 -4 43 -4 52 -1 13 -9 17 -32 15 -17 -1 -31 -3 -32 -4z"/>
</g>
</svg>
