<svg width="130" height="130" viewBox="0 0 130 130" fill="none" xmlns="http://www.w3.org/2000/svg">
<g clip-path="url(#clip0_1_27)">
<path d="M64.874 3.03461L65.0806 3C65.9969 3.43432 66.8814 3.95496 67.7676 4.43737L73.2767 7.46264L90.4723 16.8476L115.299 30.5015L125.266 35.9719C125.728 36.2349 126.455 36.5721 126.752 36.9967C126.851 37.1379 126.922 37.3236 126.94 37.4891C127.076 38.7235 126.938 40.1059 126.932 41.3553L126.935 49.1586L126.971 81.0736L126.965 89.2108L126.957 91.2243C126.955 91.5726 126.991 91.9612 126.902 92.3012C126.807 92.6608 126.535 92.9634 126.211 93.1838C125.576 93.615 124.817 93.9683 124.139 94.3482L119.486 96.9273L106.553 104.08L64.9609 127C62.9628 125.726 60.7766 124.601 58.6848 123.448L48.4787 117.835L16.6551 100.383L7.16015 95.2241L4.60456 93.8288C4.21642 93.6117 3.72217 93.3857 3.45082 93.0486C3.17703 92.7084 3.02415 92.3 3.01238 91.8827L3.0159 87.0626L3 77.9875L3.01896 49.1347L3.02263 40.4644L3.02889 38.2274C3.03241 37.9643 2.99098 37.5954 3.0665 37.3475C3.17443 36.9924 3.53185 36.7646 3.85579 36.5673L14.5384 30.6474L29.635 22.3977L54.5786 8.69759L64.874 3.03461Z" fill="#080D1F"/>
<path d="M64.8679 0.0360065L65.0845 0C66.0451 0.451837 66.9725 0.99347 67.9015 1.49533L73.6772 4.64258L91.7048 14.4059L117.733 28.6104L128.182 34.3014C128.667 34.575 129.429 34.9258 129.74 35.3675C129.844 35.5145 129.918 35.7076 129.938 35.8798C130.08 37.164 129.935 38.6021 129.929 39.9019L129.932 48.0198L129.969 81.2217L129.963 89.687L129.955 91.7818C129.952 92.1441 129.991 92.5484 129.897 92.902C129.797 93.2762 129.513 93.5909 129.173 93.8202C128.507 94.2688 127.712 94.6364 127 95.0316L122.123 97.7147L108.563 105.156L64.959 129C62.8642 127.675 60.5722 126.504 58.3792 125.305L47.6792 119.465L14.3159 101.31L4.36145 95.9428L1.6822 94.4913C1.27527 94.2654 0.757118 94.0303 0.472638 93.6796C0.185593 93.3257 0.025323 92.9008 0.0129821 92.4666L0.0166688 87.4522L0 78.0111L0.0198737 47.9949L0.0237205 38.9751L0.0302916 36.6478C0.0339779 36.3742 -0.00945636 35.9904 0.0697173 35.7325C0.182868 35.3631 0.557582 35.1261 0.897195 34.9208L12.0967 28.7622L27.9238 20.1799L54.0744 5.92733L64.8679 0.0360065Z" fill="#080D1F"/>
<path d="M39 20.4595C39.6206 20.0002 40.4298 19.6254 41.1173 19.2433L45.3864 16.8707L59.6949 8.8475C60.2634 8.53343 64.5476 5.95861 65 6.00051C64.7937 6.309 64.8809 6.86901 64.885 7.22875L64.9237 10.046C64.9255 10.5856 64.8556 11.201 64.9397 11.7322C64.3306 11.9627 63.7595 12.3141 63.1892 12.6169L59.3247 14.7757L46.9832 21.665L43.1229 23.8406C42.4304 24.2297 41.7156 24.6829 40.9821 25C41.0585 24.8913 41.1393 24.7419 41.2676 24.6801C41.5535 24.5422 41.8024 24.3856 42.0754 24.2328L42.778 23.8517L43.8071 23.2875L44.7307 22.7634L44.8464 22.658C45.0188 22.5617 45.2426 22.4407 45.4247 22.3577C45.7918 22.1906 46.0909 21.9819 46.4286 21.7773C46.6311 21.6546 46.8493 21.5983 47.0487 21.4569L47.2323 21.3285C47.391 21.2558 47.4767 21.2323 47.5783 21.084C47.7432 20.8438 47.7558 20.7475 47.6807 20.4806C47.5235 20.5157 47.4335 20.5234 47.2748 20.4929L47.0023 20.0361C46.9237 19.9329 46.8542 19.873 46.7941 19.756C46.732 19.6353 46.7674 19.6831 46.6878 19.5901C46.3758 19.226 46.2393 18.8536 45.9958 18.464C45.796 18.1441 45.6599 17.8141 45.6393 17.4449C45.6921 17.35 45.7338 17.2742 45.8166 17.1971C45.9128 17.1076 45.9496 17.0732 45.9918 16.9495C46.0361 16.8195 46.0357 16.8783 45.9619 16.7473C45.2771 17.0107 44.5863 17.481 43.9484 17.8418L40.867 19.5542C40.3036 19.87 39.7347 20.2855 39.0897 20.4399L39 20.4595Z" fill="#DF673B"/>
<path d="M7.05795 40L63.9944 71.7444L64 82L7.08477 50.0623C6.91762 49.1209 7.04927 47.9789 7.04911 47.0193L7.05795 40Z" fill="#FFD630"/>
<path d="M122.859 40C122.949 40.0135 122.899 39.998 123 40.0683L122.94 50.1439L67.1739 81L67.0272 80.9627L67 71.2661L122.859 40Z" fill="#C59E00"/>
<path d="M65.157 6.06977L123 37.7463L66.0145 69L60.4689 65.9324L50.3508 60.4309L20.9427 44.3673L14.0012 40.5469L10.2231 38.4943C9.84868 38.2842 9.2767 38.0421 9 37.7435L40.2883 19.4624L40.377 19.4433C40.9019 19.0507 41.4376 18.7628 41.9946 18.4556L48.2887 14.8004C64.6483 6.06977 64.5343 6.344 65.2115 6.08789C65.2844 6.21527 65.2009 6.29048 65.157 6.4169C65.1153 6.5372 65.0789 6.57068 64.9838 6.65763C64.9019 6.73262 64.8607 6.80638 64.8085 6.89864C64.8289 7.25763 64.9634 7.57852 65.161 7.88961C65.4018 8.26847 64.3397 8.63059 64.6483 8.98468C64.727 9.07504 64.6919 9.02864 64.7533 9.14594C64.8128 9.25971 64.8814 9.31795 64.9592 9.41838L65.2286 9.86257C65.3855 9.89223 66.6716 10.955 66.827 10.9208C66.9013 11.1804 66.8888 11.274 66.7258 11.5076C66.6253 11.6518 66.5405 11.6746 66.3836 11.7454L66.202 11.8702C66.0049 12.0078 65.7891 12.0625 65.589 12.1818C65.255 12.3808 47.0041 22.216 46.6411 22.3785C46.461 22.4592 46.2397 22.5769 46.0692 22.6705L45.9548 22.773L45.0416 23.2826L44.0239 23.8313L43.3293 24.2019C43.0593 24.3505 42.8132 24.5028 42.5305 24.6368C42.4036 24.697 42.3237 24.8422 42.2482 24.9479C42.0121 25.1843 41.3065 25.4678 40.981 25.6441L36.7845 27.9162L23.679 35.1174L19.1654 37.6077C19.3041 37.7708 19.6284 37.9034 19.8283 38.0124L21.2357 38.7721L27.0172 41.883L47.0628 52.8851L66.1515 63.2858L112.945 37.7105L64.7403 12.0461C64.6572 11.5296 64.7263 9.86093 64.7245 9.33619L63.8499 7.84374L65.157 6.11226C65.1529 5.76244 64.9531 6.36976 65.157 6.06977Z" fill="#FFD630"/>
<path d="M122.848 54C122.948 54.0085 122.894 53.9938 123 54.0678L122.998 90.7895L67.1869 121.97L67.0805 122L67 121.929L67.0087 84.7818L122.848 54Z" fill="#BDBDBD"/>
<path d="M7 54L63.9831 85.0871L64 122L7.01661 91.1033L7 54Z" fill="white"/>
<path d="M64.8818 12L112 37.5443L65.0964 63L45.9629 52.648L25.8702 41.6973L20.0751 38.6009L18.6644 37.8448C18.4641 37.7364 18.139 37.6043 18 37.442L22.5241 34.9633L35.6604 27.7958L39.8668 25.5344C40.1931 25.3588 40.9004 25.0767 41.137 24.8414C41.8639 24.5345 42.5724 24.0959 43.2588 23.7192L47.0848 21.6136L59.3167 14.9457L63.1469 12.8563C63.7121 12.5632 64.2781 12.2231 64.8818 12Z" fill="#080D1F"/>
<path d="M37.0203 34.0482L37.0992 34.0378C38.8246 33.8937 40.7999 34.1717 42.4047 34.7053C43.9208 35.2095 45.1235 35.9975 46.4836 36.7256L52.6611 40.0632C53.7521 40.6561 55.0114 41.1443 56 41.849L44.7383 47.7072L44.129 48L26 38.5114L29.494 36.6446C30.4504 36.1157 31.3733 35.4822 32.3778 35.0245C33.7658 34.3919 35.4664 34.148 37.0203 34.0482Z" fill="#FEFFFE"/>
<path d="M65.6643 12.4074C67.1586 13.0121 68.5913 13.8674 70.0097 14.6357L74.2788 16.9895C74.928 17.3881 70.9373 15.3468 71.6576 15.5954C72.6682 15.9439 74.5571 16.9322 74.5571 16.9322C74.5571 16.9322 81.0688 20.2694 81.9331 20.8503C83.2761 21.7528 84.7468 22.5825 86.1519 23.387L93.6814 27.4665L113.148 38.017L65.6762 63.9561C65.4827 63.9815 65.3858 63.9348 65.2177 63.8471L51.5566 56.2917L18.2095 38.0812C18.3637 37.912 18.6972 37.7897 18.904 37.6818L20.591 36.777L33.9874 29.5265L44.0095 24.0217L51.9972 19.7268L65.6643 12.4074Z" fill="#010119"/>
<path d="M55.0523 49.5537L55.1456 49.5379C55.6634 49.4408 56.1365 49.1549 56.6763 49.0661C59.1354 48.6615 61.9065 49.4981 63.9608 50.8487C66.6619 52.6243 68.5032 55.193 69.5802 58.2236L65.6262 60.3323L53.1241 53.4C53.481 52.1615 54.2498 50.5532 55.0523 49.5537Z" fill="#BDBDBD"/>
<path d="M74.7593 39.5891L74.8283 39.5598C75.22 39.3463 75.5441 38.8472 75.959 38.5863C77.4679 37.6372 79.6094 37.759 81.2825 38.1531C85.0824 39.0479 88.5333 41.492 90.5738 44.8615L91.4328 46.3582L91.4346 46.3625L81.7067 51.6413C81.3515 50.8938 81.0379 50.1329 80.631 49.4112C78.9323 46.399 76.552 44.1885 73.5994 42.4452C73.8741 41.5454 74.1839 40.3399 74.7593 39.5891Z" fill="#BDBDBD"/>
<path d="M36.2347 38.1046L36.3099 38.1001C36.5339 38.0564 36.7594 37.8178 36.9705 37.7107C37.5636 37.4102 38.1658 37.2505 38.8198 37.1586L38.9392 37.1408C42.0019 36.7166 45.3877 38.272 47.7475 40.1231C49.5046 41.5015 50.9973 43.3452 51.9456 45.3772C52.2174 45.9595 52.3788 46.6142 52.6716 47.1781C51.6078 48.6534 50.8514 50.1751 50.2237 51.878L34.0083 43.0958C34.2398 41.4463 35.2156 39.3897 36.2347 38.1046Z" fill="#BDBDBD"/>
<path d="M74.7593 39.5891C76.3315 36.5179 79.3314 34.223 82.5639 33.1821C85.8093 32.1369 89.3299 32.4614 92.3444 34.0455C95.6873 35.8022 97.8646 38.6908 99.1404 42.205L91.4328 46.3582L90.5738 44.8615C88.5333 41.492 85.0824 39.0479 81.2825 38.1531C79.6094 37.759 77.468 37.6372 75.959 38.5863C75.5441 38.8472 75.22 39.3463 74.8283 39.5598L74.7593 39.5891Z" fill="#FEFEFE"/>
<path d="M36.2347 38.1046C36.8962 37.1761 37.5755 36.3121 38.4123 35.5349C40.3593 33.7263 42.8498 32.5532 45.4515 32.117C48.8934 31.5398 52.355 32.5475 55.1472 34.5957C57.5859 36.3844 59.0923 38.802 60.1504 41.6043C59.0198 42.1416 57.9 42.6885 56.8483 43.3744C55.2471 44.4187 53.8845 45.699 52.6716 47.1781C52.3788 46.6142 52.2174 45.9595 51.9456 45.3772C50.9973 43.3452 49.5046 41.5015 47.7475 40.1231C45.3877 38.272 42.0019 36.7166 38.9392 37.1408L38.8198 37.1586C38.1658 37.2505 37.5636 37.4102 36.9705 37.7107C36.7594 37.8178 36.5339 38.0564 36.3099 38.1001L36.2347 38.1046Z" fill="#FEFEFE"/>
<path d="M55.0523 49.5537C57.3397 46.4904 60.3498 44.3916 64.1622 43.8471C67.7056 43.341 71.2172 44.3839 74.0621 46.5452C76.3507 48.2837 77.8402 50.4963 78.8894 53.1649L69.5802 58.2236C68.5032 55.193 66.6619 52.6243 63.9608 50.8487C61.9065 49.4981 59.1354 48.6615 56.6763 49.0661C56.1365 49.1549 55.6634 49.4408 55.1456 49.5379L55.0523 49.5537Z" fill="#FEFEFE"/>
<path d="M58.4539 27.4586C60.1527 24.2811 63.4623 21.7017 66.869 20.6666C70.5785 19.5393 74.2865 19.9446 77.6917 21.8031C80.4387 23.3023 83.2003 26.2662 84.0812 29.3393L84.1467 29.5773C80.7334 30.196 77.6665 31.6556 75.0715 33.9851C74.6625 33.4947 74.3584 32.8827 74.0159 32.3413C72.0641 29.2571 68.5441 26.6439 64.9742 25.8662C63.3555 25.5136 61.1563 25.4814 59.7076 26.4134C59.2715 26.6939 58.9382 27.1902 58.522 27.4274L58.4539 27.4586Z" fill="#FEFEFE"/>
<path d="M58.4539 27.4586L58.522 27.4273C58.9382 27.1902 59.2715 26.6939 59.7076 26.4134C61.1563 25.4814 63.3555 25.5136 64.9742 25.8662C68.5441 26.6438 72.0641 29.2571 74.0159 32.3413C74.3584 32.8826 74.6625 33.4947 75.0715 33.9851C74.1967 34.9235 73.3218 35.8575 72.614 36.9348C71.7389 38.2669 71.1483 39.7446 70.6223 41.2434C68.2827 40.5098 65.7861 40.2453 63.3669 40.7263L63.2816 40.7438C62.1219 37.0765 59.7022 34.0093 56.6765 31.7255C57.0437 30.2593 57.5576 28.6922 58.4539 27.4586Z" fill="#BDBDBD"/>
<circle cx="32" cy="83" r="5" fill="#080D1F"/>
<path d="M26.4684 94.4151L30.6944 83.2963L32.5 84.3704L31.8982 97.2593L26.4684 94.4151Z" fill="#080D1F"/>
</g>
<defs>
<clipPath id="clip0_1_27">
<rect width="130" height="130" fill="white"/>
</clipPath>
</defs>
</svg>
